<svg width="10" height="12" viewBox="0 0 10 12" fill="none" xmlns="http://www.w3.org/2000/svg">
<path fill-rule="evenodd" clip-rule="evenodd" d="M8.1844 10.5764C8.57492 10.967 9.20809 10.967 9.59861 10.5764C9.98914 10.1859 9.98914 9.55274 9.59861 9.16221L6.49417 6.05777L9.6915 2.86043C10.082 2.46991 10.082 1.83674 9.6915 1.44622C9.30098 1.0557 8.66782 1.0557 8.27729 1.44622L5.07996 4.64356L1.72292 1.28652C1.33239 0.895991 0.699226 0.895991 0.308701 1.28652C-0.0818228 1.67704 -0.0818232 2.3102 0.308701 2.70073L3.66574 6.05777L0.401593 9.32192C0.0110684 9.71244 0.0110687 10.3456 0.401593 10.7361C0.792117 11.1267 1.42528 11.1267 1.81581 10.7361L5.07995 7.47198L8.1844 10.5764Z" fill="white"/>
</svg>
