<svg width="19" height="19" viewBox="0 0 19 19" fill="none" xmlns="http://www.w3.org/2000/svg">
<path d="M13.8022 1.5H5.80225C3.59311 1.5 1.80225 3.29086 1.80225 5.5V13.5C1.80225 15.7091 3.59311 17.5 5.80225 17.5H13.8022C16.0114 17.5 17.8022 15.7091 17.8022 13.5V5.5C17.8022 3.29086 16.0114 1.5 13.8022 1.5Z" stroke="white" stroke-width="2" stroke-linecap="round" stroke-linejoin="round"/>
<path d="M9.80225 12.5C11.4591 12.5 12.8022 11.1569 12.8022 9.5C12.8022 7.84315 11.4591 6.5 9.80225 6.5C8.14539 6.5 6.80225 7.84315 6.80225 9.5C6.80225 11.1569 8.14539 12.5 9.80225 12.5Z" stroke="white" stroke-width="2" stroke-linecap="round" stroke-linejoin="round"/>
<path d="M14.3022 5V5.001" stroke="white" stroke-width="2" stroke-linecap="round" stroke-linejoin="round"/>
</svg>
