<svg width="19" height="16" viewBox="0 0 19 16" fill="none" xmlns="http://www.w3.org/2000/svg">
<path fill-rule="evenodd" clip-rule="evenodd" d="M17.3946 0.552195C17.293 0.586101 16.9007 0.734009 16.7887 0.780674C16.7561 0.794289 16.5583 0.871533 16.3492 0.952366C16.1401 1.0332 15.9476 1.10804 15.9215 1.11869C15.8953 1.12933 15.7029 1.20418 15.4938 1.28501C15.2847 1.36584 15.0922 1.44069 15.0661 1.45133C15.04 1.462 14.8208 1.54754 14.579 1.64141C14.3373 1.73529 14.1181 1.82083 14.0919 1.8315C14.0658 1.84214 13.8733 1.91699 13.6642 1.99782C13.4552 2.07865 13.2627 2.15304 13.2366 2.16317C13.2104 2.17326 13.1623 2.19268 13.1296 2.20629C13.097 2.21991 12.8992 2.29715 12.6901 2.37798C12.481 2.45882 12.2885 2.53366 12.2624 2.54431C12.2363 2.55495 12.0438 2.6298 11.8347 2.71063C11.6256 2.79146 11.4332 2.86631 11.407 2.87695C11.3809 2.88762 11.1617 2.97316 10.9199 3.06703C10.6782 3.16091 10.459 3.24645 10.4328 3.25711C10.4067 3.26776 10.2143 3.3426 10.0052 3.42344C9.79607 3.50427 9.59827 3.58151 9.56559 3.59513C9.53292 3.60874 9.48481 3.62815 9.45867 3.63825C9.43254 3.64837 9.24008 3.72277 9.03099 3.8036C8.8219 3.88443 8.62944 3.95928 8.6033 3.96992C8.57717 3.98057 8.38471 4.05541 8.17562 4.13625C7.96653 4.21708 7.77407 4.29192 7.74793 4.30257C7.7218 4.31324 7.50261 4.39877 7.26085 4.49265C7.01908 4.58653 6.7999 4.67206 6.77376 4.68273C6.74762 4.69338 6.55516 4.76822 6.34607 4.84905C6.13698 4.92989 5.94186 5.00571 5.91245 5.01756C5.88303 5.02944 5.83494 5.04883 5.80553 5.06071C5.77611 5.07257 5.58099 5.14839 5.3719 5.22922C5.16281 5.31005 4.97035 5.3849 4.94422 5.39554C4.91808 5.40619 4.72562 5.48103 4.51653 5.56186C4.30744 5.64269 4.11498 5.71754 4.08885 5.72818C4.06271 5.73885 3.84352 5.82439 3.60176 5.91827C3.36 6.01214 3.14081 6.09768 3.11467 6.10835C3.08854 6.11902 2.86935 6.20455 2.62759 6.29843C2.38583 6.39231 2.16664 6.47785 2.1405 6.48851C2.11436 6.49916 1.92191 6.574 1.71282 6.65484C1.50372 6.73567 1.31127 6.81042 1.28513 6.82094C1.25899 6.83149 1.20019 6.85383 1.15445 6.87056C0.524848 7.10101 0.591828 8.08045 1.23721 8.08045C1.25579 8.08045 1.29558 8.09017 1.32559 8.10203C1.3556 8.11388 1.46036 8.14675 1.55837 8.17502C1.65638 8.20329 1.80607 8.24713 1.89102 8.27244C1.97596 8.29774 2.08288 8.32896 2.12862 8.34182C2.23697 8.37225 2.52791 8.45898 2.60383 8.48348C2.6365 8.494 2.706 8.51446 2.75827 8.52895C2.86897 8.5596 3.15927 8.64578 3.24535 8.67356C3.27803 8.68408 3.34752 8.70454 3.3998 8.71904C3.45207 8.73351 3.567 8.76682 3.65522 8.79307C3.74344 8.8193 3.88776 8.86226 3.97598 8.88849C4.06421 8.91475 4.17913 8.94806 4.23141 8.96253C4.28368 8.97702 4.35318 8.99758 4.38585 9.00825C4.41852 9.01889 4.52544 9.05085 4.62345 9.07924C4.72146 9.10761 4.82838 9.13933 4.86106 9.14969C4.89373 9.16007 4.98461 9.18716 5.06302 9.2099C5.24944 9.26398 5.2498 9.26433 5.31134 9.4647C5.3404 9.55934 5.38312 9.69556 5.40631 9.76743C5.42947 9.83931 5.48357 10.0104 5.52653 10.1476C5.56949 10.2848 5.63355 10.488 5.66891 10.599C5.70426 10.7101 5.76832 10.9133 5.81128 11.0505C5.85424 11.1877 5.90827 11.3588 5.93139 11.4307C5.95448 11.5025 6.01813 11.7057 6.07283 11.8821C6.12753 12.0585 6.19168 12.2617 6.21539 12.3335C6.23911 12.4054 6.30326 12.6086 6.35795 12.785C6.41265 12.9614 6.47673 13.1646 6.50037 13.2364C6.52401 13.3083 6.57778 13.4794 6.61991 13.6166C6.80429 14.2174 6.8438 14.3094 6.97582 14.4455C7.16901 14.6445 7.51922 14.7068 7.7739 14.5874C7.88702 14.5343 8.44772 13.9826 9.73239 12.6602C10.1587 12.2214 10.0904 12.2411 10.3991 12.4684C10.6567 12.6582 10.8669 12.8126 11.1694 13.0345C11.5774 13.3336 11.7062 13.4283 11.9799 13.6301C12.1382 13.7468 12.4359 13.9653 12.6415 14.1156C12.847 14.2659 13.1666 14.5002 13.3516 14.6365C13.5366 14.7727 13.7682 14.943 13.8662 15.015C13.9642 15.087 14.1033 15.19 14.1753 15.244C14.8573 15.7548 15.5768 15.475 15.7327 14.6383C15.7412 14.5926 15.7578 14.5124 15.7695 14.4601C15.7813 14.4078 15.8014 14.3116 15.8143 14.2463C15.8272 14.1809 15.8593 14.0259 15.8858 13.9017C15.9123 13.7776 15.9445 13.6225 15.9574 13.5572C15.9702 13.4919 15.9915 13.3903 16.0046 13.3315C16.0178 13.2727 16.0392 13.1711 16.0522 13.1058C16.0652 13.0404 16.0865 12.9388 16.0997 12.88C16.1128 12.8212 16.1341 12.7197 16.1469 12.6543C16.1598 12.589 16.1908 12.4393 16.2158 12.3217C16.314 11.8596 16.3674 11.6048 16.385 11.5138C16.3951 11.4615 16.4164 11.36 16.4323 11.2881C16.4483 11.2162 16.4696 11.1146 16.4797 11.0624C16.4973 10.9714 16.5507 10.7165 16.6488 10.2545C16.6739 10.1369 16.7048 9.98722 16.7177 9.92188C16.7306 9.85653 16.7518 9.75496 16.765 9.69615C16.7781 9.63735 16.7995 9.53577 16.8125 9.47043C16.8255 9.40509 16.8469 9.30351 16.8601 9.24471C16.8733 9.1859 16.8935 9.08967 16.905 9.03087C16.9255 8.92618 16.9857 8.63834 17.0765 8.21113C17.1016 8.09352 17.1325 7.94383 17.1454 7.87849C17.1582 7.81315 17.1795 7.71158 17.1927 7.65277C17.2058 7.59396 17.2271 7.49239 17.2399 7.42705C17.2528 7.3617 17.2837 7.21201 17.3088 7.0944C17.4069 6.63238 17.4603 6.37751 17.4779 6.28655C17.4881 6.23428 17.5094 6.1327 17.5253 6.06083C17.5412 5.98895 17.5625 5.88738 17.5727 5.83511C17.5903 5.74415 17.6436 5.48927 17.7418 5.02726C17.7668 4.90964 17.7978 4.75995 17.8107 4.69461C17.8235 4.62927 17.8448 4.5277 17.8579 4.46889C17.8711 4.41008 17.8925 4.30851 17.9055 4.24317C17.9185 4.17783 17.9399 4.07625 17.9531 4.01744C17.9662 3.95864 17.9865 3.86241 17.998 3.8036C18.0185 3.69891 18.0787 3.41108 18.1695 2.98387C18.1945 2.86626 18.2255 2.71657 18.2384 2.65123C18.2512 2.58589 18.2725 2.48431 18.2856 2.4255C18.2988 2.3667 18.32 2.26512 18.3329 2.19978C18.3458 2.13444 18.3789 1.9794 18.4066 1.85526C18.6108 0.939939 18.1214 0.309816 17.3946 0.552195ZM15.2881 3.22972C15.4525 3.35617 15.4034 3.42372 14.6978 4.04192C14.4822 4.23081 14.3004 4.39096 14.2939 4.39777C14.2874 4.40457 14.1911 4.49018 14.0801 4.58802C13.969 4.68584 13.8727 4.77155 13.8662 4.77844C13.8597 4.78533 13.6779 4.94564 13.4623 5.13468C13.2467 5.32369 13.0649 5.48393 13.0584 5.49075C13.0518 5.49754 12.9556 5.58315 12.8445 5.681C12.7334 5.77882 12.6372 5.86452 12.6307 5.87141C12.6241 5.8783 12.4424 6.03861 12.2267 6.22765C12.0111 6.41666 11.8294 6.5769 11.8228 6.58372C11.8163 6.59052 11.7201 6.67613 11.609 6.77397C11.4979 6.87179 11.4017 6.95749 11.3951 6.96439C11.3886 6.97128 11.2068 7.13159 10.9912 7.32062C10.7756 7.50964 10.5938 7.66988 10.5873 7.67669C10.5808 7.68349 10.4845 7.7691 10.3734 7.86694C10.2624 7.96477 10.1661 8.05047 10.1596 8.05736C10.1531 8.06425 9.9713 8.22456 9.75568 8.4136C9.54005 8.60261 9.35829 8.76285 9.35175 8.76967C9.34522 8.77646 9.24899 8.86207 9.13791 8.95992C9.02683 9.05774 8.9306 9.14344 8.92407 9.15033C8.91753 9.15722 8.73577 9.31753 8.52014 9.50657C8.30452 9.69558 8.12275 9.85573 8.11622 9.86243C8.10968 9.8691 8.01177 9.95783 7.8986 10.0596C7.67755 10.2583 7.59349 10.3916 7.59349 10.5434C7.59349 10.5915 7.58353 10.6958 7.57137 10.7753C7.55918 10.8548 7.5372 11.0321 7.52249 11.1693C7.50781 11.3065 7.48628 11.499 7.47469 11.597C7.46309 11.695 7.44171 11.8874 7.42717 12.0247C7.3509 12.7446 7.30437 13.0676 7.27327 13.0934C7.22468 13.1337 7.17723 13.068 7.11919 12.88C7.08894 12.782 7.0456 12.643 7.02289 12.5711C6.97921 12.4329 6.86909 12.0765 6.78433 11.7989C6.75639 11.7075 6.71467 11.5738 6.6916 11.5019C6.66855 11.4301 6.62533 11.2911 6.59556 11.1931C6.56579 11.095 6.52242 10.956 6.49921 10.8842C6.47597 10.8123 6.4231 10.6412 6.38171 10.504C6.34032 10.3668 6.28746 10.1957 6.26422 10.1238C6.24101 10.052 6.19916 9.91831 6.17125 9.82683C6.14335 9.73536 6.08839 9.5602 6.04914 9.43759C5.88037 8.91031 5.87885 8.91233 6.90444 8.27816C7.41595 7.96187 7.5549 7.87571 7.75981 7.74781C7.85782 7.68663 8.01286 7.59049 8.10434 7.53418C8.19581 7.47785 8.3427 7.38525 8.43076 7.32842C8.51881 7.27158 8.59646 7.22508 8.6033 7.22508C8.61015 7.22508 8.68779 7.17863 8.77585 7.12184C8.94726 7.01134 9.22029 6.84012 9.47055 6.68625C9.76991 6.5022 9.95949 6.38473 10.1358 6.27405C10.2339 6.21254 10.4744 6.06309 10.6704 5.94196C11.2187 5.60313 11.3219 5.5392 11.5139 5.4193C11.612 5.35812 11.767 5.26198 11.8585 5.20567C11.9499 5.14934 12.0968 5.05674 12.1849 4.99991C12.2729 4.94307 12.3506 4.89657 12.3574 4.89657C12.3643 4.89657 12.4419 4.85012 12.53 4.79334C12.7014 4.68283 12.9744 4.51161 13.2247 4.35774C13.524 4.17369 13.7136 4.05622 13.89 3.94554C13.988 3.88403 14.2286 3.73448 14.4246 3.61319C14.6206 3.49189 14.855 3.34612 14.9456 3.28924C15.1242 3.17699 15.202 3.16348 15.2881 3.22972Z" fill="white"/>
</svg>
