<svg width="14" height="15" viewBox="0 0 14 15" fill="none" xmlns="http://www.w3.org/2000/svg">
<path fill-rule="evenodd" clip-rule="evenodd" d="M6.93736 0.0192701C6.92187 0.0347598 6.90919 2.47887 6.90919 5.45066V10.8539L6.80407 11.1332C6.18758 12.771 4.13744 13.1247 3.07101 11.7772C1.82014 10.1967 3.287 7.8856 5.25345 8.33889C5.50991 8.398 5.50343 8.43299 5.50417 6.98579C5.50492 5.48523 5.57381 5.63939 4.89206 5.61671C-0.872752 5.42476 -1.74935 13.5825 3.89386 14.9064C5.95614 15.3901 8.44197 13.944 9.15239 11.8471C9.40638 11.0974 9.40072 11.18 9.41774 7.9747C9.43005 5.65847 9.44438 5.03165 9.48494 5.03165C9.51328 5.03165 9.60985 5.08498 9.69953 5.1502C10.3995 5.65921 11.6567 6.08388 12.7209 6.17083C13.1434 6.20536 13.1108 6.3187 13.096 4.8666L13.0844 3.73085L12.8985 3.69764C10.7771 3.31845 9.5954 2.20869 9.37094 0.384744L9.32517 0.0129916L8.14535 0.00204558C7.49644 -0.00398507 6.95285 0.00378042 6.93736 0.0192701Z" fill="white"/>
</svg>
