<svg width="27" height="16" viewBox="0 0 27 16" fill="none" xmlns="http://www.w3.org/2000/svg">
<path fill-rule="evenodd" clip-rule="evenodd" d="M11.1407 0.523671C10.1451 0.612474 9.57505 0.842052 9.29339 1.26771C9.16057 1.46834 9.18277 1.51521 9.43977 1.57691C10.2881 1.7806 10.5993 2.16704 10.771 3.23016C10.8387 3.64919 10.8407 6.09665 10.7736 6.48575C10.5949 7.52358 10.4109 7.83784 9.98573 7.83141C9.4602 7.82348 8.64082 6.8734 7.59052 5.05408C7.55314 4.98936 7.43221 4.78084 7.32179 4.59076C7.14435 4.28525 6.52633 3.05197 6.36481 2.68103C6.33194 2.60552 6.25898 2.44172 6.20273 2.31703C6.14649 2.19238 6.10044 2.08094 6.10044 2.06941C6.10044 1.82928 5.72714 1.38699 5.40308 1.2432L5.19605 1.15129L3.20654 1.15271C0.631248 1.15451 0.456741 1.19079 0.453446 1.72506C0.452073 1.94413 0.465292 1.98214 0.80603 2.73986C1.22608 3.67402 2.01895 5.26291 2.5431 6.22099C2.62277 6.36663 2.75311 6.60487 2.83273 6.75051C2.91236 6.89611 3.06466 7.16531 3.17116 7.34868C3.27769 7.53205 3.39975 7.74386 3.44243 7.81937C3.4851 7.89487 3.5339 7.9743 3.55088 7.99587C3.56787 8.01745 3.61674 8.09688 3.65949 8.17238C3.89845 8.59427 4.86312 10.0711 5.11996 10.4081C5.1775 10.4837 5.34961 10.7131 5.50247 10.9181C7.15192 13.1297 9.06612 14.5647 11.1015 15.1156C11.5474 15.2363 11.6813 15.268 11.9252 15.3105C12.0762 15.3368 12.2845 15.3743 12.388 15.3936C12.6837 15.4489 15.0295 15.4384 15.1976 15.381C15.6001 15.2436 15.828 14.948 15.828 14.5632C15.828 13.5704 16.0993 12.5884 16.4724 12.2309C17.0328 11.6939 17.5627 11.9907 18.9621 13.6253C19.9272 14.7524 20.5798 15.2291 21.4856 15.4682C21.8123 15.5544 25.7548 15.4493 26.0695 15.3459C27.5113 14.8727 26.837 13.5653 23.5664 10.493C22.3222 9.32431 22.2372 9.01774 22.881 8.02349C22.9969 7.84451 23.2012 7.55327 23.335 7.37629C23.5822 7.04932 24.1455 6.31838 24.233 6.21118C24.2741 6.16082 24.7423 5.53571 24.9675 5.23059C26.3387 3.37255 26.996 2.01563 26.7526 1.54506C26.5458 1.14514 26.4738 1.13647 23.6139 1.16722C20.6488 1.19911 20.7785 1.16993 20.4995 1.86713C20.4801 1.91569 20.4271 2.03905 20.3819 2.14127C20.3366 2.24352 20.2995 2.33566 20.2995 2.34602C20.2995 2.35641 20.2573 2.45812 20.2058 2.57199C20.1543 2.68589 20.0735 2.86734 20.0262 2.97521C19.8595 3.35509 19.4172 4.23418 19.2269 4.56378C19.1209 4.74715 19.0022 4.95335 18.963 5.02203C18.8915 5.14727 18.7842 5.31715 18.3856 5.93662C17.0674 7.98485 16.1579 8.3441 15.8683 6.93094C15.8191 6.69042 15.8322 4.1371 15.8906 2.60258C15.9265 1.66019 15.8199 1.21048 15.4922 0.92203C15.3073 0.75929 15.1094 0.684725 14.5336 0.560895C14.2747 0.505236 11.6683 0.476642 11.1407 0.523671Z" fill="white"/>
</svg>
